REM DIRINDEX 1\2,1\3,1\4,1\5
REM DIRNAME cjc093,folder01,folder02,folder03,folder04
TITLE ""
FILE "Round-15-362-363.mp3" MP3
  TRACK 01 AUDIO
    TITLE "0:"
    INDEX 01 00:00:00
  TRACK 02 AUDIO
    TITLE "2:cjc093_3965"
    INDEX 01 00:00:03
  TRACK 03 AUDIO
    TITLE "0:"
    INDEX 01 00:01:05
  TRACK 04 AUDIO
    TITLE "3:cjc093_3966"
    INDEX 01 00:01:36
  TRACK 05 AUDIO
    TITLE "0:"
    INDEX 01 00:03:02
  TRACK 06 AUDIO
    TITLE "4:cjc093_3967"
    INDEX 01 00:03:14
  TRACK 07 AUDIO
    TITLE "0:"
    INDEX 01 00:06:47
  TRACK 08 AUDIO
    TITLE "2:cjc093_3968"
    INDEX 01 00:07:56
  TRACK 09 AUDIO
    TITLE "0:"
    INDEX 01 00:08:64
  TRACK 10 AUDIO
    TITLE "3:cjc093_3969"
    INDEX 01 00:09:26
  TRACK 11 AUDIO
    TITLE "0:"
    INDEX 01 00:11:25
  TRACK 12 AUDIO
    TITLE "4:cjc093_3970"
    INDEX 01 00:11:48
  TRACK 13 AUDIO
    TITLE "0:"
    INDEX 01 00:15:25
  TRACK 14 AUDIO
    TITLE "2:cjc093_3971"
    INDEX 01 00:16:40
  TRACK 15 AUDIO
    TITLE "0:"
    INDEX 01 00:17:35
  TRACK 16 AUDIO
    TITLE "3:cjc093_3972"
    INDEX 01 00:18:03
  TRACK 17 AUDIO
    TITLE "0:"
    INDEX 01 00:19:71
  TRACK 18 AUDIO
    TITLE "4:cjc093_3973"
    INDEX 01 00:20:02
  TRACK 19 AUDIO
    TITLE "0:"
    INDEX 01 00:22:38
  TRACK 20 AUDIO
    TITLE "4:cjc093_3974"
    INDEX 01 00:23:12
  TRACK 21 AUDIO
    TITLE "0:"
    INDEX 01 00:25:58
  TRACK 22 AUDIO
    TITLE "2:cjc093_3975"
    INDEX 01 00:26:69
  TRACK 23 AUDIO
    TITLE "0:"
    INDEX 01 00:27:65
  TRACK 24 AUDIO
    TITLE "3:cjc093_3976"
    INDEX 01 00:28:41
  TRACK 25 AUDIO
    TITLE "0:"
    INDEX 01 00:30:20
  TRACK 26 AUDIO
    TITLE "4:cjc093_3977"
    INDEX 01 00:30:46
  TRACK 27 AUDIO
    TITLE "0:"
    INDEX 01 00:33:58
  TRACK 28 AUDIO
    TITLE "3:cjc093_3978"
    INDEX 01 00:34:73
  TRACK 29 AUDIO
    TITLE "0:"
    INDEX 01 00:36:74
  TRACK 30 AUDIO
    TITLE "4:cjc093_3979"
    INDEX 01 00:37:59
  TRACK 31 AUDIO
    TITLE "0:"
    INDEX 01 00:40:62
  TRACK 32 AUDIO
    TITLE "2:cjc093_3980"
    INDEX 01 00:41:69
  TRACK 33 AUDIO
    TITLE "0:"
    INDEX 01 00:43:05
  TRACK 34 AUDIO
    TITLE "3:cjc093_3981"
    INDEX 01 00:43:40
  TRACK 35 AUDIO
    TITLE "0:"
    INDEX 01 00:46:17
  TRACK 36 AUDIO
    TITLE "4:cjc093_3982"
    INDEX 01 00:46:64
  TRACK 37 AUDIO
    TITLE "0:"
    INDEX 01 00:50:54
  TRACK 38 AUDIO
    TITLE "2:cjc093_3983"
    INDEX 01 00:51:65
  TRACK 39 AUDIO
    TITLE "0:"
    INDEX 01 00:53:09
  TRACK 40 AUDIO
    TITLE "3:cjc093_3984"
    INDEX 01 00:53:39
  TRACK 41 AUDIO
    TITLE "0:"
    INDEX 01 00:55:08
  TRACK 42 AUDIO
    TITLE "4:cjc093_3985"
    INDEX 01 00:55:34
  TRACK 43 AUDIO
    TITLE "0:"
    INDEX 01 00:58:24
  TRACK 44 AUDIO
    TITLE "2:cjc093_3986"
    INDEX 01 00:59:36
  TRACK 45 AUDIO
    TITLE "0:"
    INDEX 01 01:00:49
  TRACK 46 AUDIO
    TITLE "3:cjc093_3987"
    INDEX 01 01:01:13
  TRACK 47 AUDIO
    TITLE "0:"
    INDEX 01 01:03:47
  TRACK 48 AUDIO
    TITLE "4:cjc093_3988"
    INDEX 01 01:04:05
  TRACK 49 AUDIO
    TITLE "0:"
    INDEX 01 01:07:08
  TRACK 50 AUDIO
    TITLE "2:cjc093_3989"
    INDEX 01 01:08:19
  TRACK 51 AUDIO
    TITLE "0:"
    INDEX 01 01:09:01
  TRACK 52 AUDIO
    TITLE "3:cjc093_3990"
    INDEX 01 01:09:42
  TRACK 53 AUDIO
    TITLE "0:"
    INDEX 01 01:11:25
  TRACK 54 AUDIO
    TITLE "4:cjc093_3991"
    INDEX 01 01:11:54
  TRACK 55 AUDIO
    TITLE "0:"
    INDEX 01 01:15:05
  TRACK 56 AUDIO
    TITLE "2:cjc093_3992"
    INDEX 01 01:16:16
  TRACK 57 AUDIO
    TITLE "0:"
    INDEX 01 01:17:20
  TRACK 58 AUDIO
    TITLE "3:cjc093_3993"
    INDEX 01 01:17:49
  TRACK 59 AUDIO
    TITLE "0:"
    INDEX 01 01:19:30
  TRACK 60 AUDIO
    TITLE "4:cjc093_3994"
    INDEX 01 01:19:46
  TRACK 61 AUDIO
    TITLE "0:"
    INDEX 01 01:22:56
